# Alias OBJ Model File
# Exported from SketchUp, (c) 2000-2012 Trimble Navigation Limited
# File units = meters

mtllib Quater_round_64.mtl

g Mesh1 Model

usemtl FrontColor
v 0.713977 -0.361221 -0
vt -28.1093 -14.2213
vn 0 0 -1
v 0.720189 -0.487663 -0
vt -28.3539 -19.1993
v -0.569811 -0.487663 -0
vt 22.4335 -19.1993
v -0.569811 0.802337 -0
vt 22.4335 31.5881
v -0.443369 0.796126 -0
vt 17.4555 31.3435
v -0.318145 0.77755 -0
vt 12.5254 30.6122
v -0.195344 0.74679 -0
vt 7.69072 29.4012
v -0.0761499 0.704142 -0
vt 2.99803 27.7221
v 0.0382903 0.650016 -0
vt -1.50749 25.5912
v 0.146874 0.584933 -0
vt -5.78245 23.0289
v 0.248556 0.509521 -0
vt -9.78566 20.0599
v 0.342356 0.424505 -0
vt -13.4786 16.7128
v 0.427372 0.330705 -0
vt -16.8257 13.0199
v 0.502784 0.229023 -0
vt -19.7947 9.01665
v 0.567867 0.120439 -0
vt -22.357 4.7417
v 0.621993 0.00599898 -0
vt -24.4879 0.23618
v 0.664642 -0.113195 -0
vt -26.167 -4.45651
v 0.695402 -0.235996 -0
vt -27.378 -9.29119
f 1/1/1 2/2/1 3/3/1 4/4/1 5/5/1 6/6/1 7/7/1 8/8/1 9/9/1 10/10/1 11/11/1 12/12/1 13/13/1 14/14/1 15/15/1 16/16/1 17/17/1 18/18/1 

usemtl BackColor
vn -0 -0 1
f 18/18/2 17/17/2 16/16/2 15/15/2 14/14/2 13/13/2 12/12/2 11/11/2 10/10/2 9/9/2 8/8/2 7/7/2 6/6/2 5/5/2 4/4/2 3/3/2 2/2/2 1/1/2 

