# Alias OBJ Model File
# Exported from SketchUp, (c) 2000-2012 Trimble Navigation Limited
# File units = meters

mtllib Hemi_round_64.mtl

g Mesh1 Model

usemtl FrontColor
v 2.22921 -0.690442 -0
vt -87.7643 -27.1827
vn 0 0 -1
v 2.24 -0.91 -0
vt -88.189 -35.8268
v -2.24 -0.91 -0
vt 88.189 -35.8268
v -2.22921 -0.690442 -0
vt 87.7643 -27.1827
v -2.19696 -0.472998 -0
vt 86.4944 -18.622
v -2.14355 -0.259762 -0
vt 84.3916 -10.2269
v -2.06949 -0.0527891 -0
vt 81.476 -2.07831
v -1.9755 0.145929 -0
vt 77.7757 5.74522
v -1.86249 0.334477 -0
vt 73.3265 13.1684
v -1.73154 0.511041 -0
vt 68.171 20.1197
v -1.58392 0.673919 -0
vt 62.359 26.5323
v -1.42104 0.821543 -0
vt 55.9465 32.3442
v -1.24448 0.952492 -0
vt 48.9952 37.4997
v -1.05593 1.0655 -0
vt 41.572 41.949
v -0.857211 1.15949 -0
vt 33.7485 45.6492
v -0.650238 1.23355 -0
vt 25.5999 48.5648
v -0.437002 1.28696 -0
vt 17.2048 50.6677
v -0.219558 1.31921 -0
vt 8.64403 51.9376
v -4.11481e-016 1.33 -0
vt 1.62001e-014 52.3622
v 0.219558 1.31921 -0
vt -8.64403 51.9376
v 0.437002 1.28696 -0
vt -17.2048 50.6677
v 0.650238 1.23355 -0
vt -25.5999 48.5648
v 0.857211 1.15949 -0
vt -33.7485 45.6492
v 1.05593 1.0655 -0
vt -41.572 41.949
v 1.24448 0.952492 -0
vt -48.9952 37.4997
v 1.42104 0.821543 -0
vt -55.9465 32.3442
v 1.58392 0.673919 -0
vt -62.359 26.5323
v 1.73154 0.511041 -0
vt -68.171 20.1197
v 1.86249 0.334477 -0
vt -73.3265 13.1684
v 1.9755 0.145929 -0
vt -77.7757 5.74522
v 2.06949 -0.0527891 -0
vt -81.476 -2.07831
v 2.14355 -0.259762 -0
vt -84.3916 -10.2269
v 2.19696 -0.472998 -0
vt -86.4944 -18.622
f 1/1/1 2/2/1 3/3/1 4/4/1 5/5/1 6/6/1 7/7/1 8/8/1 9/9/1 10/10/1 11/11/1 12/12/1 13/13/1 14/14/1 15/15/1 16/16/1 17/17/1 18/18/1 19/19/1 20/20/1 21/21/1 22/22/1 23/23/1 24/24/1 25/25/1 26/26/1 27/27/1 28/28/1 29/29/1 30/30/1 31/31/1 32/32/1 33/33/1 

usemtl BackColor
vn -0 -0 1
f 33/33/2 32/32/2 31/31/2 30/30/2 29/29/2 28/28/2 27/27/2 26/26/2 25/25/2 24/24/2 23/23/2 22/22/2 21/21/2 20/20/2 19/19/2 18/18/2 17/17/2 16/16/2 15/15/2 14/14/2 13/13/2 12/12/2 11/11/2 10/10/2 9/9/2 8/8/2 7/7/2 6/6/2 5/5/2 4/4/2 3/3/2 2/2/2 1/1/2 

