# Alias OBJ Model File
# Exported from SketchUp, (c) 2000-2012 Trimble Navigation Limited
# File units = meters

mtllib Quater_round_32.mtl

g Mesh1 Model

usemtl FrontColor
v 0.686121 -0.529065 -0
vt -27.0126 -20.8293
vn 0 0 -1
v -0.453879 -0.529065 -0
vt 17.8693 -20.8293
v -0.453879 0.610935 -0
vt 17.8693 24.0526
v -0.231476 0.589031 -0
vt 9.11325 23.1902
v -0.0176203 0.524158 -0
vt 0.693714 20.6361
v 0.179471 0.418811 -0
vt -7.06577 16.4886
v 0.352222 0.277037 -0
vt -13.867 10.907
v 0.493996 0.104285 -0
vt -19.4487 4.10573
v 0.599343 -0.0928055 -0
vt -23.5962 -3.65376
v 0.664216 -0.306662 -0
vt -26.1502 -12.0733
f 1/1/1 2/2/1 3/3/1 4/4/1 5/5/1 6/6/1 7/7/1 8/8/1 9/9/1 10/10/1 

usemtl BackColor
vn -0 -0 1
f 10/10/2 9/9/2 8/8/2 7/7/2 6/6/2 5/5/2 4/4/2 3/3/2 2/2/2 1/1/2 

