# Alias OBJ Model File
# Exported from SketchUp, (c) 2000-2012 Trimble Navigation Limited
# File units = meters

mtllib Round_64.mtl

g Mesh1 Model

usemtl FrontColor
v 2.14355 0.650238 -0
vt -84.3916 25.5999
vn 0 0 -1
v 2.19696 0.437002 -0
vt -86.4944 17.2048
v 2.22921 0.219558 -0
vt -87.7643 8.64403
v 2.24 0 -0
vt -88.189 0
v 2.22921 -0.219558 -0
vt -87.7643 -8.64403
v 2.19696 -0.437002 -0
vt -86.4944 -17.2048
v 2.14355 -0.650238 -0
vt -84.3916 -25.5999
v 2.06949 -0.857211 -0
vt -81.476 -33.7485
v 1.9755 -1.05593 -0
vt -77.7757 -41.572
v 1.86249 -1.24448 -0
vt -73.3265 -48.9952
v 1.73154 -1.42104 -0
vt -68.171 -55.9465
v 1.58392 -1.58392 -0
vt -62.359 -62.359
v 1.42104 -1.73154 -0
vt -55.9465 -68.171
v 1.24448 -1.86249 -0
vt -48.9952 -73.3265
v 1.05593 -1.9755 -0
vt -41.572 -77.7757
v 0.857211 -2.06949 -0
vt -33.7485 -81.476
v 0.650238 -2.14355 -0
vt -25.5999 -84.3916
v 0.437002 -2.19696 -0
vt -17.2048 -86.4944
v 0.219558 -2.22921 -0
vt -8.64403 -87.7643
v 1.3716e-016 -2.24 -0
vt -5.40002e-015 -88.189
v -0.219558 -2.22921 -0
vt 8.64403 -87.7643
v -0.437002 -2.19696 -0
vt 17.2048 -86.4944
v -0.650238 -2.14355 -0
vt 25.5999 -84.3916
v -0.857211 -2.06949 -0
vt 33.7485 -81.476
v -1.05593 -1.9755 -0
vt 41.572 -77.7757
v -1.24448 -1.86249 -0
vt 48.9952 -73.3265
v -1.42104 -1.73154 -0
vt 55.9465 -68.171
v -1.58392 -1.58392 -0
vt 62.359 -62.359
v -1.73154 -1.42104 -0
vt 68.171 -55.9465
v -1.86249 -1.24448 -0
vt 73.3265 -48.9952
v -1.9755 -1.05593 -0
vt 77.7757 -41.572
v -2.06949 -0.857211 -0
vt 81.476 -33.7485
v -2.14355 -0.650238 -0
vt 84.3916 -25.5999
v -2.19696 -0.437002 -0
vt 86.4944 -17.2048
v -2.22921 -0.219558 -0
vt 87.7643 -8.64403
v -2.24 -2.74321e-016 -0
vt 88.189 -1.08e-014
v -2.22921 0.219558 -0
vt 87.7643 8.64403
v -2.19696 0.437002 -0
vt 86.4944 17.2048
v -2.14355 0.650238 -0
vt 84.3916 25.5999
v -2.06949 0.857211 -0
vt 81.476 33.7485
v -1.9755 1.05593 -0
vt 77.7757 41.572
v -1.86249 1.24448 -0
vt 73.3265 48.9952
v -1.73154 1.42104 -0
vt 68.171 55.9465
v -1.58392 1.58392 -0
vt 62.359 62.359
v -1.42104 1.73154 -0
vt 55.9465 68.171
v -1.24448 1.86249 -0
vt 48.9952 73.3265
v -1.05593 1.9755 -0
vt 41.572 77.7757
v -0.857211 2.06949 -0
vt 33.7485 81.476
v -0.650238 2.14355 -0
vt 25.5999 84.3916
v -0.437002 2.19696 -0
vt 17.2048 86.4944
v -0.219558 2.22921 -0
vt 8.64403 87.7643
v -4.11481e-016 2.24 -0
vt 1.62001e-014 88.189
v 0.219558 2.22921 -0
vt -8.64403 87.7643
v 0.437002 2.19696 -0
vt -17.2048 86.4944
v 0.650238 2.14355 -0
vt -25.5999 84.3916
v 0.857211 2.06949 -0
vt -33.7485 81.476
v 1.05593 1.9755 -0
vt -41.572 77.7757
v 1.24448 1.86249 -0
vt -48.9952 73.3265
v 1.42104 1.73154 -0
vt -55.9465 68.171
v 1.58392 1.58392 -0
vt -62.359 62.359
v 1.73154 1.42104 -0
vt -68.171 55.9465
v 1.86249 1.24448 -0
vt -73.3265 48.9952
v 1.9755 1.05593 -0
vt -77.7757 41.572
v 2.06949 0.857211 -0
vt -81.476 33.7485
f 1/1/1 2/2/1 3/3/1 4/4/1 5/5/1 6/6/1 7/7/1 8/8/1 9/9/1 10/10/1 11/11/1 12/12/1 13/13/1 14/14/1 15/15/1 16/16/1 17/17/1 18/18/1 19/19/1 20/20/1 21/21/1 22/22/1 23/23/1 24/24/1 25/25/1 26/26/1 27/27/1 28/28/1 29/29/1 30/30/1 31/31/1 32/32/1 33/33/1 34/34/1 35/35/1 36/36/1 37/37/1 38/38/1 39/39/1 40/40/1 41/41/1 42/42/1 43/43/1 44/44/1 45/45/1 46/46/1 47/47/1 48/48/1 49/49/1 50/50/1 51/51/1 52/52/1 53/53/1 54/54/1 55/55/1 56/56/1 57/57/1 58/58/1 59/59/1 60/60/1 61/61/1 62/62/1 63/63/1 64/64/1 

usemtl BackColor
vn -0 -0 1
f 64/64/2 63/63/2 62/62/2 61/61/2 60/60/2 59/59/2 58/58/2 57/57/2 56/56/2 55/55/2 54/54/2 53/53/2 52/52/2 51/51/2 50/50/2 49/49/2 48/48/2 47/47/2 46/46/2 45/45/2 44/44/2 43/43/2 42/42/2 41/41/2 40/40/2 39/39/2 38/38/2 37/37/2 36/36/2 35/35/2 34/34/2 33/33/2 32/32/2 31/31/2 30/30/2 29/29/2 28/28/2 27/27/2 26/26/2 25/25/2 24/24/2 23/23/2 22/22/2 21/21/2 20/20/2 19/19/2 18/18/2 17/17/2 16/16/2 15/15/2 14/14/2 13/13/2 12/12/2 11/11/2 10/10/2 9/9/2 8/8/2 7/7/2 6/6/2 5/5/2 4/4/2 3/3/2 2/2/2 1/1/2 

