# Alias OBJ Model File
# Exported from SketchUp, (c) 2000-2012 Trimble Navigation Limited
# File units = meters

mtllib Hemi_round_32.mtl

g Mesh1 Model

usemtl FrontColor
v 1.1181 0.222403 -0
vt -44.0195 8.75602
vn 0 0 -1
v 1.14 0 -0
vt -44.8819 0
v -1.14 -1.3961e-016 -0
vt 44.8819 -5.49645e-015
v -1.1181 0.222403 -0
vt 44.0195 8.75602
v -1.05322 0.436259 -0
vt 41.4655 17.1756
v -0.947875 0.63335 -0
vt 37.3179 24.935
v -0.806102 0.806102 -0
vt 31.7363 31.7363
v -0.63335 0.947875 -0
vt 24.935 37.3179
v -0.436259 1.05322 -0
vt 17.1756 41.4655
v -0.222403 1.1181 -0
vt 8.75602 44.0195
v -2.09415e-016 1.14 -0
vt 8.24467e-015 44.8819
v 0.222403 1.1181 -0
vt -8.75602 44.0195
v 0.436259 1.05322 -0
vt -17.1756 41.4655
v 0.63335 0.947875 -0
vt -24.935 37.3179
v 0.806102 0.806102 -0
vt -31.7363 31.7363
v 0.947875 0.63335 -0
vt -37.3179 24.935
v 1.05322 0.436259 -0
vt -41.4655 17.1756
f 1/1/1 2/2/1 3/3/1 4/4/1 5/5/1 6/6/1 7/7/1 8/8/1 9/9/1 10/10/1 11/11/1 12/12/1 13/13/1 14/14/1 15/15/1 16/16/1 17/17/1 

usemtl BackColor
vn -0 -0 1
f 17/17/2 16/16/2 15/15/2 14/14/2 13/13/2 12/12/2 11/11/2 10/10/2 9/9/2 8/8/2 7/7/2 6/6/2 5/5/2 4/4/2 3/3/2 2/2/2 1/1/2 

